<svg width="291" height="290" viewBox="0 0 291 290" fill="none" xmlns="http://www.w3.org/2000/svg">
<path d="M82.0447 240.213C83.1531 240.213 84.0768 241.137 84.0768 242.246C83.9845 242.8 83.7997 243.354 83.4302 243.724C83.0607 244.093 82.5989 244.278 81.9523 244.37C80.8438 244.37 79.8278 243.446 79.8278 242.246C79.8278 241.599 80.1049 241.137 80.4744 240.767C80.9362 240.398 81.3981 240.213 82.0447 240.213Z" fill="#50E6FF"/>
<path d="M86.9401 237.257C84.169 234.855 80.3818 235.132 77.7954 237.719L77.1488 238.366C76.6869 238.827 76.5946 239.659 77.1488 240.213C77.703 240.767 78.442 240.675 78.9038 240.121L79.6428 239.382C81.2131 237.811 83.8919 237.719 85.5546 239.382L86.0164 239.844C86.4783 240.306 87.3096 240.306 87.7715 239.751C88.0486 239.566 88.1409 239.197 88.1409 238.827C88.1409 238.735 88.1409 238.55 88.0486 238.366C87.9562 238.181 87.8638 237.996 87.7715 237.904L86.9401 237.257Z" fill="#50E6FF"/>
<path d="M90.543 234.763L89.7117 233.931C85.3702 230.144 78.7195 230.236 74.5628 234.301L73.7315 235.225C73.2696 235.686 73.362 236.425 73.8239 236.887C74.2857 237.349 75.0247 237.349 75.4866 236.887L76.3179 236.056C79.6432 232.73 85.0931 232.73 88.6032 235.964L89.2498 236.61C89.7117 237.072 90.543 237.072 91.0049 236.61C91.4667 236.148 91.3744 235.409 91.0049 234.947" fill="#50E6FF"/>
<path d="M254.132 243.169L252.654 244.647L252.1 244.093L251.269 244.925L252.377 246.033L254.502 243.908L254.132 243.169Z" fill="#50E6FF"/>
<path d="M258.011 243.908C258.011 243.908 257.826 242.523 257.179 241.784C254.87 239.474 251.822 239.382 250.898 238.366C250.806 237.811 250.713 237.349 250.806 236.887C250.898 236.241 251.083 235.779 251.452 235.409C251.822 235.04 252.376 234.855 252.93 234.763C253.115 234.763 253.392 234.763 253.669 234.855C253.946 234.947 254.224 235.132 254.408 235.409C254.593 235.594 254.778 235.871 254.963 236.148C255.055 236.426 255.147 236.703 255.055 236.887V237.719L255.332 237.996L257.734 237.904C257.826 237.904 257.918 237.904 257.918 237.811C258.011 237.719 258.011 237.719 258.011 237.626V236.887C257.918 234.116 255.609 231.899 252.838 231.899C251.36 231.991 250.159 232.546 249.236 233.377C248.312 234.301 247.85 235.502 247.758 236.98L248.035 248.066C248.035 248.805 248.681 249.359 249.328 249.359H257.087C257.457 249.359 257.734 249.174 258.011 248.989C258.195 248.805 258.38 248.435 258.38 248.066L258.011 243.908ZM252.93 247.511C251.175 247.511 249.79 246.218 249.882 244.463C249.974 243.539 250.252 242.8 250.806 242.338C251.36 241.784 252.099 241.506 252.93 241.414C253.207 241.322 253.577 241.414 253.946 241.506C254.316 241.691 254.685 241.968 255.055 242.246C255.424 242.615 255.609 242.985 255.794 243.354C255.979 243.724 255.979 244.093 255.886 244.37C255.794 245.294 255.517 246.033 254.963 246.587C254.501 247.142 253.762 247.511 252.93 247.511Z" fill="#50E6FF"/>
<path d="M189.473 43.9963V42.4258C189.473 41.5944 189.843 40.8554 190.305 40.3935C190.766 39.9315 191.505 39.562 192.337 39.562C193.907 39.562 195.108 40.8554 195.2 42.4258V43.9963H196.955V42.4258C197.048 41.9639 196.955 41.502 196.77 40.8554C196.586 40.3935 196.309 40.0239 196.032 39.6544C195.662 39.2849 195.293 38.9154 194.923 38.6382C194.554 38.3611 194.092 38.1763 193.722 37.9915C193.353 37.8992 192.983 37.8992 192.614 37.8992C191.321 37.9916 190.212 38.4535 189.381 39.2849C188.549 40.1163 188.18 41.1325 187.995 42.5182V44.0887L189.473 43.9963Z" fill="#50E6FF"/>
<path d="M186.886 44.5504V52.8647L197.694 52.7723V44.458L186.886 44.5504ZM193.26 48.7999V50.5551C193.26 50.8323 193.168 51.017 193.075 51.1094C192.891 51.2018 192.706 51.2942 192.521 51.2942C192.059 51.2942 191.597 50.9247 191.69 50.4628V48.7075C191.505 48.5228 191.413 48.338 191.32 48.1532C191.228 47.9685 191.228 47.7837 191.228 47.599C191.228 47.2294 191.413 46.8599 191.597 46.6751C191.782 46.4904 192.152 46.3056 192.521 46.3056C193.26 46.3056 193.722 46.8599 193.814 47.599C193.722 48.1532 193.537 48.6151 193.26 48.7999Z" fill="#50E6FF"/>
<path d="M124.997 7.4134C124.72 6.39721 123.981 5.65817 122.872 5.65817L122.133 5.56579C121.209 3.90293 119.547 2.97913 117.699 2.97913C116.314 3.07151 115.205 3.53341 114.374 4.27246C113.543 5.0115 112.988 6.02769 112.711 7.32102C111.788 7.50578 111.049 7.96769 110.494 8.61435C109.94 9.26102 109.663 10.1848 109.571 11.201C109.571 13.4182 111.233 15.081 113.45 15.081H123.888H124.627C125.736 14.9886 126.752 14.6191 127.398 13.8801C128.137 13.141 128.507 12.2172 128.599 11.0163C128.784 9.26102 127.121 7.50578 124.997 7.4134Z" fill="#50E6FF"/>
<path d="M94.6997 53.3267C94.6997 53.2343 94.6997 53.2343 94.7921 53.1419C94.7921 53.1419 94.8845 53.0496 94.9768 53.0496H109.202L109.479 53.3267C109.479 53.4191 109.479 53.4191 109.387 53.5115C109.387 53.5115 109.294 53.6038 109.202 53.6038L94.6997 53.3267Z" fill="#50E6FF"/>
<path d="M98.4878 51.7563H96.3633L96.4557 46.583H98.4878V51.7563Z" fill="#50E6FF"/>
<path d="M101.72 51.7563H99.5951V44.9202H101.72V51.7563Z" fill="#50E6FF"/>
<path d="M104.675 51.7561H102.55V42.7952H104.675V51.7561Z" fill="#50E6FF"/>
<path d="M107.817 51.6639H105.692V39.0077H107.817V51.6639Z" fill="#50E6FF"/>
<path d="M223.465 77.2534L235.565 77.3458C235.842 77.3458 236.119 77.161 236.304 77.0686C236.489 76.8839 236.581 76.6991 236.581 76.3296V68.4772C236.581 68.3848 236.581 68.2925 236.489 68.1077C236.397 68.0153 236.304 67.8306 236.212 67.7382C236.119 67.6458 236.027 67.5534 235.842 67.461C235.75 67.3687 235.565 67.3687 235.473 67.3687H223.28C223.003 67.3687 222.726 67.461 222.633 67.6458C222.449 67.8306 222.356 68.0153 222.356 68.2925V76.3296C222.541 76.7915 222.91 77.2534 223.465 77.2534ZM223.927 68.4772H235.011L234.919 75.9601H223.834L223.927 68.4772Z" fill="#50E6FF"/>
<path d="M237.228 77.8999H221.802C221.525 77.8999 221.34 78.0847 221.155 78.177C220.97 78.3618 220.878 78.5466 220.878 78.8237C220.878 79.378 221.34 79.7475 221.802 79.7475L237.135 79.6551C237.412 79.6551 237.597 79.5628 237.782 79.378C237.967 79.1932 238.059 79.0085 238.059 78.7313C238.244 78.177 237.874 77.7151 237.228 77.8999ZM225.866 79.1932H223.28V78.3618H225.866V79.1932ZM234.179 79.1008C234.087 79.1932 233.625 78.9161 233.625 78.5466C233.625 78.3618 233.718 78.2694 233.81 78.177C233.902 78.0847 233.995 77.9923 234.179 77.9923C234.364 77.8075 234.734 78.177 234.641 78.4542C234.641 78.6389 234.641 78.8237 234.549 78.9161C234.457 79.0085 234.272 79.1008 234.087 79.0085L234.179 79.1008ZM235.75 79.0085C235.657 79.1008 235.196 78.8237 235.288 78.5466C235.38 78.2694 235.473 78.0847 235.75 78.0847C235.842 77.9923 236.304 78.2694 236.304 78.6389C236.304 78.8237 236.212 79.0085 236.119 79.1008C236.027 79.0085 235.842 79.1008 235.75 79.0085Z" fill="#50E6FF"/>
<path d="M176.633 256.472C178.018 255.086 178.388 253.331 177.741 252.315C177.094 251.299 176.263 251.114 174.878 251.114C174.416 251.114 173.954 251.114 173.492 251.206C172.845 249.266 171.737 248.158 170.444 248.158C168.873 248.527 167.765 249.636 167.396 251.206C166.934 251.114 166.472 251.114 166.01 251.114C164.717 251.022 163.793 251.483 163.239 252.315C162.962 252.777 162.869 253.423 163.054 254.163C163.239 254.902 163.701 255.733 164.347 256.472C162.869 257.95 162.592 259.613 163.239 260.629C163.885 261.645 164.624 262.015 166.01 261.923C166.472 261.923 166.934 261.923 167.396 261.83C168.042 263.678 169.151 264.879 170.351 264.879C172.014 264.509 173.123 263.401 173.4 261.83C173.861 261.923 174.323 261.923 174.785 262.015C176.078 262.015 177.094 261.553 177.649 260.722C177.926 260.26 178.018 259.613 177.833 258.874C177.649 257.95 177.187 257.211 176.633 256.472ZM173.492 253.793C173.123 253.516 172.845 253.331 172.476 253.054C172.014 252.777 171.645 252.592 171.183 252.5C171.737 252.223 172.384 252.038 173.123 251.945C173.307 252.5 173.492 253.146 173.584 253.701L173.492 253.793ZM170.444 248.804C171.46 248.804 172.291 249.728 172.938 251.299C172.106 251.483 171.275 251.761 170.444 252.038C169.705 251.761 168.873 251.483 168.134 251.299C168.412 250.005 169.243 249.082 170.536 248.712L170.444 248.804ZM167.857 251.945C168.412 252.13 169.058 252.315 169.705 252.5L168.504 253.054L167.303 253.516L167.857 251.945ZM163.978 252.684C164.347 252.038 165.086 251.668 166.102 251.761L167.211 251.853C167.118 252.592 166.841 253.423 166.749 254.347L164.994 256.103C164.44 255.548 163.978 254.809 163.885 254.163C163.608 253.516 163.701 252.962 163.978 252.684ZM166.657 257.858C166.195 257.488 165.733 257.026 165.363 256.564C165.733 256.01 166.102 255.641 166.657 255.271C166.564 255.641 166.472 256.103 166.472 256.472C166.472 256.842 166.564 257.303 166.657 257.858ZM166.01 261.276C164.902 261.276 164.07 260.999 163.885 260.352C163.608 259.705 163.701 258.32 164.809 256.934C165.363 257.581 166.01 258.135 166.657 258.597C166.749 259.428 166.841 260.26 167.118 261.091L166.01 261.276ZM167.396 259.243C167.58 259.428 167.765 259.613 167.95 259.705C168.134 259.798 168.319 259.89 168.504 259.89C168.873 260.075 169.243 260.26 169.705 260.444L168.227 261.091C167.95 260.444 167.765 259.705 167.58 259.059L167.396 259.243ZM170.444 264.232C169.52 264.232 168.596 263.216 168.042 261.83C168.873 261.645 169.612 261.368 170.351 260.999C171.183 261.368 172.014 261.645 172.753 261.83C172.476 263.031 171.645 263.863 170.444 264.14V264.232ZM173.307 261.276L171.367 260.722L172.568 260.075L173.4 259.243L173.307 261.276ZM173.584 258.32C173.215 258.689 172.753 259.151 172.384 259.521L170.721 260.352C170.167 260.075 169.612 259.798 169.058 259.521C168.504 259.243 168.042 258.874 167.488 258.504C167.488 257.95 167.303 257.303 167.303 256.657C167.303 256.01 167.396 255.456 167.488 254.809L168.966 253.793L170.629 252.962C171.183 253.146 171.737 253.423 172.291 253.793C172.753 254.07 173.307 254.347 173.769 254.809C173.862 255.456 173.954 256.103 173.954 256.657C173.861 257.211 173.769 257.765 173.584 258.32ZM174.878 251.761C175.894 251.761 176.817 252.038 177.187 252.592C177.556 253.146 177.187 254.624 176.171 255.918C175.617 255.271 175.062 254.717 174.416 254.163C174.416 253.423 174.231 252.592 173.954 251.668L174.878 251.761ZM174.323 255.179C174.785 255.641 175.247 256.103 175.709 256.564L174.323 257.95V256.657C174.323 256.103 174.323 255.548 174.231 254.994L174.323 255.179ZM177.187 260.352C176.725 260.999 175.894 261.368 174.878 261.276L173.769 261.183C174.046 260.444 174.139 259.613 174.231 258.689L175.986 256.842C176.54 257.396 177.002 258.043 177.187 258.689C177.464 259.336 177.464 259.89 177.279 260.352H177.187Z" fill="#50E6FF"/>
<path d="M170.536 254.902C170.074 254.994 169.705 255.086 169.427 255.364C169.15 255.641 168.966 256.01 168.966 256.472C168.966 256.657 168.966 256.842 169.058 257.026C169.15 257.211 169.243 257.396 169.427 257.581C169.612 257.765 169.797 257.858 169.982 257.95C170.166 258.043 170.351 258.043 170.536 258.043C170.998 258.043 171.367 257.858 171.644 257.581C171.921 257.304 172.106 256.934 172.106 256.472C172.106 255.641 171.46 254.902 170.536 254.902Z" fill="#50E6FF"/>
<path d="M248.313 115.314C247.943 115.222 247.574 115.222 247.205 115.222C246.466 115.129 245.819 115.314 245.357 115.684C244.895 116.053 244.618 116.607 244.526 117.254C244.526 118.363 245.449 119.379 247.297 119.286C248.036 119.286 248.682 119.194 249.144 118.825C249.606 118.455 249.883 117.901 249.976 117.254V109.125L256.349 108.478V114.39C255.98 114.298 255.61 114.206 255.241 114.206C254.502 114.113 253.855 114.298 253.393 114.667C252.932 115.037 252.654 115.591 252.562 116.238C252.562 117.439 253.486 118.363 255.241 118.363C255.98 118.455 256.626 118.27 257.088 117.901C257.55 117.531 257.827 116.977 257.92 116.33V106.446L248.221 107.462L248.313 115.314Z" fill="#50E6FF"/>
<path d="M288.309 132.405C287.755 131.666 287.108 131.111 286.461 130.465C286.646 130.187 286.831 129.818 286.831 129.356C286.831 128.802 286.646 128.247 286.184 127.97C286.739 127.231 287.2 126.4 287.478 125.476C288.032 124.09 288.309 122.52 288.401 120.765C287.2 121.966 286.277 123.351 285.538 125.014C285.168 125.753 284.891 126.677 284.799 127.508C284.337 127.601 283.875 127.693 283.598 128.063C283.321 128.34 283.136 128.802 283.044 129.264C281.935 129.171 280.919 129.171 279.996 129.264C278.333 129.633 276.855 130.095 275.469 130.834C278.425 131.573 281.012 131.481 283.136 130.557C283.321 130.742 283.506 131.019 283.783 131.111C284.06 131.296 284.245 131.388 284.522 131.388L284.245 138.409H285.261L285.076 131.388L285.353 131.111C285.723 131.85 286.092 132.682 286.646 133.421C287.755 134.622 289.048 135.73 290.341 136.654C289.879 135.453 289.233 133.883 288.309 132.405Z" fill="#50E6FF"/>
<path d="M215.059 235.502L216.536 234.024C216.906 233.654 217.275 233.285 217.645 232.915C218.107 232.453 218.384 232.176 218.014 231.807C217.645 231.437 216.721 231.807 215.52 233.1L214.135 234.486L211.641 234.208L211.918 233.931C212.195 233.654 212.38 233.469 212.01 233.285C211.641 233.1 211.456 233.1 210.902 233.562L210.44 234.024L208.777 233.747L209.147 233.377C209.332 233.192 209.424 233.1 209.147 232.73C208.87 232.361 208.593 232.546 208.315 232.823L207.669 233.562C206.56 233.377 205.544 233.285 204.621 233.469L204.344 233.747C204.344 233.747 204.344 233.747 204.344 233.839V233.931C204.344 233.931 204.344 234.024 204.436 234.024L204.528 234.116C204.805 234.393 204.805 234.393 205.544 234.486C206.56 234.67 207.577 235.04 208.685 235.409C209.516 235.687 210.255 236.056 211.087 236.61L210.994 236.703C210.625 237.165 210.255 237.627 209.793 237.904L207.761 239.936C207.392 239.936 207.022 239.844 206.653 239.751C206.283 239.659 205.821 239.659 205.544 239.751C205.36 239.844 205.175 240.028 205.082 240.213L204.805 240.49C205.544 240.952 206.376 241.322 207.115 241.599C207.484 242.43 207.854 243.169 208.223 244.001C208.315 244.001 208.315 244.001 208.408 243.908C208.408 243.908 208.5 243.816 208.5 243.724C208.777 243.631 208.962 243.447 209.054 243.077L208.962 241.968C208.87 241.507 208.777 241.137 208.87 240.768C209.886 239.936 210.809 239.012 211.641 237.996L212.287 237.349C212.749 238.181 213.211 239.012 213.396 239.844C213.858 240.86 214.135 241.876 214.412 242.892L214.689 243.908L215.151 244.001C215.243 244.001 215.336 243.908 215.428 243.724C215.613 243.539 215.705 242.523 215.428 240.675L216.075 240.028C216.352 239.751 216.536 239.567 216.259 239.197C215.982 238.92 215.982 238.92 215.613 239.197L215.336 239.474L215.151 237.904L215.52 237.534C215.982 237.072 216.259 236.795 215.798 236.426C215.428 235.964 215.336 236.241 215.151 236.518L214.874 236.795L215.059 235.502Z" fill="#50E6FF"/>
<path d="M255.702 150.788L251.083 160.95H257.919L255.702 169.449L262.168 157.994H256.718L261.059 150.788H255.702Z" fill="#50E6FF"/>
<path d="M53.5023 198.826L49.5303 202.799C49.1608 202.614 48.7913 202.522 48.4219 202.522C47.4982 202.614 46.7592 202.891 46.205 203.446C45.6507 204 45.3736 204.739 45.2812 205.663C45.2812 205.755 45.3736 205.94 45.3736 206.032C45.3736 206.125 45.3736 206.217 45.466 206.402L45.3736 206.494L45.7431 206.864C46.205 207.88 47.3134 208.434 48.4219 208.434C49.3456 208.434 50.0845 208.065 50.6388 207.51C51.193 206.956 51.4701 206.217 51.5625 205.293C51.5625 205.016 51.4701 204.646 51.3777 204.277L51.5625 204.092V202.891L53.0404 203.353V202.152L54.3336 202.245V201.044H55.6268V199.288L55.7192 199.196L53.5023 198.826ZM49.0685 206.771C49.0685 206.956 49.1608 207.048 49.1608 207.233C49.0685 207.326 48.9761 207.51 48.8837 207.51C48.3295 207.787 47.6829 207.603 47.221 207.141C47.0363 206.864 46.8516 206.679 46.7592 206.402C46.6668 206.309 46.6668 206.217 46.6668 206.125L46.9439 205.847C47.0363 205.663 47.1287 205.57 47.221 205.57L47.3134 205.478H47.4058C47.4058 205.478 47.4982 205.478 47.4982 205.57L47.5905 205.663L48.2371 206.309L49.0685 206.771Z" fill="#50E6FF"/>
<path d="M101.351 272.084C98.3026 267.373 95.7162 266.911 92.6679 266.911C89.7121 267.188 87.3104 268.389 85.6477 270.422C83.8927 270.514 82.5071 271.253 81.7682 272.546C81.491 272.824 81.3987 273.193 81.3987 273.747C81.4911 274.117 81.7682 274.394 81.9529 274.764H82.6919C82.969 275.78 83.8927 276.519 85.0011 276.519C85.5554 276.519 86.1096 276.334 86.4791 276.057C86.8486 275.78 87.1257 275.318 87.218 274.764L96.0857 274.579C96.3628 275.595 97.2865 276.426 98.3949 276.426C98.9492 276.334 99.5034 276.149 99.8729 275.872C100.242 275.595 100.519 275.133 100.704 274.579C101.258 274.579 101.628 274.302 101.813 273.932C102.182 272.916 101.351 272.084 101.351 272.084ZM85.2783 275.687C84.3546 275.687 83.6156 274.948 83.6156 274.024C83.6156 273.563 83.8003 273.101 84.0774 272.824C84.3545 272.546 84.724 272.362 85.2783 272.362C86.1096 272.362 87.0333 273.101 86.9409 274.024C86.9409 274.486 86.7562 274.856 86.4791 275.225C86.1096 275.41 85.7401 275.595 85.2783 275.687ZM87.5875 269.867C88.8807 268.204 90.9129 267.465 93.4993 267.65V269.867H87.5875ZM94.423 269.867C94.3306 269.128 94.3306 268.482 94.423 267.835C94.423 267.835 97.1017 268.297 97.8407 269.867H94.423ZM98.5797 275.595C97.656 275.595 96.917 274.856 96.8246 273.84C96.8246 273.378 97.0094 272.916 97.2865 272.639C97.5636 272.362 97.9331 272.177 98.4873 272.084C99.411 272.084 100.15 272.824 100.15 273.747C100.15 274.302 99.9652 274.764 99.6881 275.041C99.411 275.318 98.9492 275.503 98.3949 275.595H98.5797Z" fill="#50E6FF"/>
<path d="M85.0927 273.563C85.0003 273.563 84.8156 273.655 84.8156 273.655C84.7232 273.748 84.7232 273.84 84.7232 273.932C84.6308 274.025 84.9079 274.394 85.185 274.394C85.2774 274.394 85.3698 274.394 85.4622 274.302C85.5545 274.209 85.5545 274.117 85.5545 274.025C85.5545 274.025 85.3698 273.563 85.0927 273.563Z" fill="#50E6FF"/>
<path d="M98.4871 273.47C98.2099 273.562 98.1176 273.655 98.0252 273.932C97.9328 274.024 98.3023 274.394 98.4871 274.394C98.5794 274.394 98.6718 274.301 98.7642 274.301C98.8565 274.209 98.8565 274.117 98.8565 274.024C98.9489 273.932 98.7642 273.562 98.4871 273.47Z" fill="#50E6FF"/>
<path d="M42.5107 105.707C40.109 105.892 38.1693 106.723 36.6913 108.109C35.3058 109.587 34.4744 111.527 34.2897 113.929C34.2897 118.548 37.9845 122.151 42.5107 122.151C44.9123 121.966 46.9445 121.134 48.4224 119.749C49.9004 118.271 50.7317 116.238 50.8241 113.836C51.0088 113.005 50.9165 112.081 50.4546 110.973C49.9927 109.956 49.2538 108.848 48.3301 108.016C47.4064 107.093 46.3903 106.446 45.3742 105.984C44.2657 105.614 43.2497 105.43 42.5107 105.707ZM42.4183 120.488C38.9082 120.58 36.0447 117.624 36.0447 114.021C36.1371 112.173 36.7837 110.603 37.8921 109.494C39.0006 108.386 40.5709 107.739 42.4183 107.554C46.0208 107.554 48.7919 110.418 48.7919 113.929C48.6995 115.776 48.053 117.347 46.9445 118.455C45.836 119.656 44.2657 120.303 42.4183 120.488Z" fill="#50E6FF"/>
<path d="M42.5097 109.402C41.2165 109.494 40.1081 109.956 39.2767 110.788C38.4454 111.619 38.0759 112.635 37.9835 114.021C37.9835 116.608 40.0157 118.732 42.6021 118.64C43.9876 118.548 45.0961 118.086 45.9274 117.254C46.7588 116.423 47.2206 115.314 47.313 113.929C47.1282 111.434 45.0037 109.402 42.5097 109.402ZM42.5097 116.792C40.9394 116.792 39.7386 115.499 39.7386 113.929C39.8309 113.097 40.1081 112.45 40.5699 111.989C41.0318 111.527 41.6784 111.249 42.5097 111.157C44.08 111.157 45.2808 112.358 45.1885 113.836C45.1885 114.668 44.9113 115.314 44.4495 115.776C43.8953 116.423 43.2487 116.7 42.5097 116.792Z" fill="#50E6FF"/>
<path d="M42.5111 113.005C42.234 113.005 42.0493 113.097 41.8645 113.282C41.6798 113.467 41.5874 113.651 41.5874 113.929C41.5874 114.575 42.0493 114.945 42.6035 114.945C42.8806 114.945 43.1577 114.852 43.3424 114.668C43.5272 114.483 43.6196 114.206 43.6196 113.929C43.5272 113.467 42.973 113.005 42.5111 113.005Z" fill="#50E6FF"/>
<path d="M19.1402 182.29H15.2607C14.1522 182.383 13.2285 182.845 12.5819 183.491L6.11593 189.958C5.46933 190.605 5.46933 191.621 6.11593 192.36L10.8268 197.071C11.4734 197.718 12.5819 197.718 13.1361 197.071L19.5097 190.697C20.1563 189.958 20.5258 188.942 20.6182 187.833L20.7105 184.046C20.8029 182.937 20.0639 182.29 19.1402 182.29ZM16.9233 187.741C16.092 187.741 15.2607 187.094 15.353 186.17C15.353 185.708 15.5378 185.247 15.8149 184.969C16.092 184.692 16.5538 184.508 17.0157 184.508C17.9394 184.508 18.6784 185.247 18.7707 186.263C18.7707 186.725 18.586 187.187 18.2165 187.464C17.9394 187.556 17.4776 187.741 16.9233 187.741Z" fill="#50E6FF"/>
<path d="M281.474 190.882V191.344H285.815C285.908 190.789 286.092 190.42 286.369 190.05C286.647 189.773 287.108 189.589 287.57 189.496C288.586 189.496 289.418 190.328 289.418 191.344H290.896C290.896 191.344 291.357 188.849 290.341 188.388C289.51 188.018 288.679 187.741 287.847 187.556C287.847 187.556 285.353 184.046 283.875 183.953H281.289L281.474 190.882ZM281.936 184.508H284.153C285.169 184.508 286.831 187.187 286.831 187.187H281.843L281.936 184.508Z" fill="#50E6FF"/>
<path d="M286 191.436C286 191.621 286 191.806 286.092 191.99C286.185 192.175 286.277 192.36 286.462 192.545C286.646 192.729 286.831 192.822 287.016 192.914C287.201 193.007 287.385 193.007 287.57 193.007C288.032 193.007 288.401 192.822 288.679 192.545C288.956 192.268 289.14 191.898 289.14 191.436C289.14 190.512 288.494 189.866 287.57 189.866C287.108 189.866 286.739 190.05 286.462 190.328C286.277 190.605 286.092 191.067 286 191.436ZM286.923 191.436C286.923 191.251 287.016 191.067 287.108 190.974C287.201 190.882 287.385 190.789 287.57 190.789C287.94 190.789 288.217 191.067 288.217 191.436C288.217 191.621 288.124 191.806 288.032 191.898C287.94 191.99 287.755 192.083 287.57 192.083C287.293 192.083 286.923 191.806 286.923 191.436Z" fill="#50E6FF"/>
<path d="M272.422 182.752H280.458C280.643 182.568 281.29 183.122 281.29 183.584V191.159H277.41C277.41 190.974 277.41 190.697 277.318 190.512C277.225 190.235 277.04 190.05 276.856 189.866C276.671 189.681 276.394 189.496 276.209 189.404C275.932 189.311 275.747 189.219 275.563 189.311C275.008 189.311 274.546 189.496 274.269 189.866C273.9 190.143 273.623 190.605 273.623 191.159H271.96V183.584C271.868 183.214 272.052 182.845 272.422 182.752Z" fill="#50E6FF"/>
<path d="M273.899 191.344C273.899 192.267 274.546 192.914 275.47 192.914C275.932 192.914 276.301 192.729 276.578 192.452C276.855 192.175 277.04 191.806 277.04 191.344C277.04 190.42 276.301 189.773 275.377 189.681C274.915 189.681 274.454 189.866 274.177 190.143C273.992 190.42 273.899 190.882 273.899 191.344ZM274.823 191.436C274.823 191.251 274.915 191.066 275.008 190.974C275.1 190.882 275.285 190.789 275.47 190.789C275.654 190.605 276.209 191.159 276.116 191.436C276.116 191.621 276.024 191.806 275.932 191.99C275.839 192.083 275.654 192.175 275.47 192.175C275.285 192.36 274.823 191.806 274.823 191.436Z" fill="#50E6FF"/>
<path d="M271.035 71.7104C271.035 68.8466 269.28 66.4447 267.34 66.6295C266.14 66.9066 265.216 67.4609 264.569 68.2924C263.923 69.2162 263.646 70.3247 263.646 71.7104H261.798L260.782 81.318L273.899 81.5028L273.067 71.8028L271.035 71.7104ZM264.2 73.5581C264.015 73.7428 263.646 73.3733 263.738 73.0962C263.738 72.9114 263.83 72.819 263.923 72.7266C264.015 72.6343 264.107 72.5419 264.292 72.5419C264.385 72.4495 264.569 72.819 264.754 73.0038C264.754 73.1885 264.754 73.2809 264.662 73.3733C264.477 73.4657 264.292 73.5581 264.2 73.5581ZM267.433 67.3686C268.911 67.3686 270.204 69.2162 270.204 71.5257H264.569C264.569 70.4171 264.754 69.4933 265.216 68.8466C265.77 68.1076 266.509 67.6457 267.433 67.3686ZM270.573 73.3733C270.481 73.4657 270.204 73.1885 270.204 73.0038C270.204 72.9114 270.296 72.7266 270.389 72.7266C270.481 72.6343 270.573 72.6343 270.666 72.5419C270.851 72.3571 271.22 72.819 271.128 73.0038C271.128 73.1885 271.128 73.2809 271.035 73.3733C270.943 73.4657 270.758 73.4657 270.573 73.4657V73.3733Z" fill="#50E6FF"/>
<path d="M183.007 3.07166L181.16 4.91928C180.328 5.75071 179.127 5.75071 178.388 4.91928C177.649 4.08785 177.557 2.97928 178.296 2.14785L180.236 0.207857C179.22 -0.0692856 178.296 -0.0692856 177.465 0.207857C176.633 0.392618 175.987 0.854522 175.525 1.40881C174.971 1.87071 174.601 2.51738 174.509 3.3488C174.324 4.18023 174.416 5.10404 174.694 6.02785L169.521 11.5707C167.858 13.2335 170.444 15.7278 172.015 14.065L177.372 8.70689C178.388 8.98403 179.404 9.07641 180.236 8.89165C181.067 8.70689 181.714 8.24499 182.176 7.6907C182.73 7.2288 183.099 6.58213 183.192 5.7507C183.376 5.01166 183.284 4.08785 183.007 3.07166ZM170.999 13.7878C170.445 13.7878 169.983 13.4183 169.983 12.7716C169.983 12.4945 170.167 12.2174 170.26 12.125C170.445 11.9402 170.629 11.8478 170.906 11.7555C171.368 11.7555 171.922 12.125 171.922 12.7716C171.83 13.2335 171.553 13.6031 171.091 13.6955L170.999 13.7878Z" fill="#50E6FF"/>
<path d="M43.4333 233.747C41.9554 233.839 40.7545 234.393 39.8308 235.225C38.9071 236.148 38.4453 237.349 38.3529 238.828C38.3529 241.599 40.5698 243.908 43.4333 243.908C44.9112 243.816 46.1121 243.262 46.9434 242.43C47.7747 241.507 48.329 240.306 48.4213 238.828C48.6061 238.366 48.5137 237.719 48.2366 237.072C47.9595 236.426 47.4976 235.779 46.9434 235.225C46.3892 234.67 45.7426 234.208 45.096 233.931C44.4494 233.747 43.8952 233.654 43.4333 233.747ZM43.4333 242.246C41.4935 242.246 39.9232 240.767 39.9232 238.735C40.0156 237.719 40.2927 236.795 40.9393 236.148C41.5859 235.502 42.4172 235.132 43.4333 235.132C43.7104 235.04 44.1723 235.132 44.5418 235.317C45.0036 235.502 45.4655 235.779 45.835 236.148C46.2044 236.518 46.4815 236.98 46.6663 237.442C46.851 237.904 46.9434 238.273 46.851 238.643C46.851 239.659 46.4815 240.583 45.835 241.229C45.2807 241.784 44.357 242.153 43.4333 242.246Z" fill="#50E6FF"/>
<path d="M43.4342 235.871C42.6028 235.964 41.8638 236.241 41.3096 236.795C40.7554 237.349 40.4783 237.996 40.4783 238.92C40.3859 239.197 40.3859 239.566 40.5706 240.028C40.7554 240.398 41.0325 240.86 41.3096 241.229C41.6791 241.599 42.0486 241.876 42.4181 241.968C42.7876 242.153 43.2494 242.153 43.5265 242.061C44.3579 241.968 45.0968 241.691 45.6511 241.229C46.2053 240.675 46.4824 240.028 46.4824 239.105C46.2977 237.165 45.0968 235.871 43.4342 235.871Z" fill="#50E6FF"/>
<path d="M37.614 233.654L37.4293 235.964L37.3369 233.654L37.0598 235.964L36.875 233.654L36.7827 235.964V233.747L36.4132 236.703C36.4132 236.703 36.5979 236.887 36.6903 237.257C36.7827 237.627 36.5055 237.811 36.5055 238.366L36.3208 243.539L36.7827 244.37C37.1521 244.186 37.2445 243.724 37.2445 243.262L37.1521 237.811C37.1521 237.534 37.1521 237.257 37.2445 236.98C37.2445 236.888 37.3369 236.795 37.4293 236.703C37.5216 236.61 37.614 236.61 37.7064 236.518L37.614 233.654Z" fill="#50E6FF"/>
<path d="M50.2695 243.446L49.9924 238.55C50.1771 236.518 50.0848 234.208 50.0848 233.839C50.0848 233.469 49.7153 233.469 49.5305 233.839C48.9763 235.132 48.9763 236.703 49.4382 238.458L49.3458 243.262C49.2534 243.908 49.7153 244.185 49.7153 244.185C50.0848 244.093 50.2695 243.816 50.2695 243.446Z" fill="#50E6FF"/>
<path d="M45.2812 156.331L43.8032 156.054L42.9719 158.087L43.3414 156.147L43.4337 156.054C43.4337 155.962 43.4337 155.777 43.3414 155.685C43.249 155.592 43.1566 155.408 43.0643 155.315C42.9719 155.223 42.7871 155.13 42.6948 155.038C42.6024 154.946 42.4177 154.946 42.3253 154.946L36.3212 154.022C35.9517 154.022 35.5822 154.114 35.3051 154.299C35.028 154.484 34.8432 154.761 34.8432 155.13L34.4738 157.625C34.289 158.271 34.8432 159.01 35.4898 159.103L35.767 159.195L34.7509 163.26L32.7187 163.814L32.8111 162.521C32.8111 161.967 32.4416 161.689 31.9797 161.689C31.7026 161.689 31.5179 161.782 31.3331 161.874C31.1484 162.059 31.056 162.244 31.056 162.521V166.031C31.056 166.586 31.3331 166.955 31.8874 166.863C32.1645 166.863 32.3492 166.77 32.534 166.586C32.7187 166.401 32.8111 166.216 32.8111 165.939V164.738L35.4898 163.907L36.8754 159.195L41.5863 159.934C42.1405 159.934 42.6024 159.749 42.8795 159.38L44.7269 159.749L44.9117 159.103L46.0201 159.288L46.482 157.44L45.3735 157.163L45.2812 156.331ZM36.4135 157.809C36.3212 157.809 36.1364 157.809 35.9517 157.717C35.7669 157.625 35.6746 157.532 35.4898 157.44C35.3975 157.348 35.2127 157.163 35.2127 156.978C35.1204 156.793 35.1204 156.701 35.1204 156.609C35.1204 156.239 35.3051 155.962 35.4898 155.777C35.6746 155.592 35.9517 155.408 36.3212 155.408C36.9678 155.408 37.522 155.869 37.522 156.609C37.522 156.978 37.4296 157.255 37.2449 157.532C37.0601 157.809 36.8754 157.902 36.5059 157.994L36.4135 157.809Z" fill="#50E6FF"/>
<path d="M34.197 79.1932L34.0122 79.378L33.6428 77.438C33.8275 77.2532 33.3656 76.6989 32.6267 76.4218V73.2809C32.6267 70.3247 30.1327 67.8304 27.3615 67.9228C25.7912 68.0152 24.498 68.5694 23.5743 69.4932C22.6506 70.4171 22.0964 71.7104 22.004 73.2809V76.237C21.4498 76.4218 21.0803 76.7913 20.8956 77.3456V78.9161C20.5261 78.9161 20.249 79.0085 20.0642 79.1932C19.8795 79.378 19.7871 79.6551 19.7871 80.0247C19.7871 80.117 19.7871 80.3018 19.8795 80.3942C19.9719 80.4866 20.0642 80.6713 20.1566 80.7637C20.249 80.8561 20.4337 80.9485 20.5261 81.0408C20.6184 81.1332 20.8032 81.1332 20.8956 81.1332L25.3294 80.9485C25.3294 81.1332 25.4217 81.4104 25.5141 81.5951C25.6065 81.8723 25.7912 82.057 25.976 82.2418C26.1607 82.4266 26.4378 82.6113 26.6226 82.7037C26.8997 82.7961 27.0844 82.8885 27.2692 82.8885C27.8234 82.7961 28.2852 82.6113 28.6547 82.2418C29.0242 81.8723 29.2089 81.4104 29.2089 80.8561H33.8275C34.197 80.8561 34.4741 80.6713 34.6588 80.4866C34.8436 80.3018 34.9359 80.0247 35.0283 79.6551C35.3978 79.7475 34.8436 79.1932 34.197 79.1932Z" fill="#50E6FF"/>
<path d="M149.106 37.8993L148.921 27.7374C148.921 27.5526 148.921 27.2755 148.829 26.9983C148.736 26.7212 148.552 26.444 148.275 26.2593C148.09 26.0745 147.813 25.8897 147.536 25.705C147.258 25.6126 146.981 25.5202 146.797 25.6126C146.15 25.6126 145.688 25.8897 145.319 26.1669C144.949 26.5364 144.764 26.9983 144.764 27.645V37.7145C144.118 38.2688 143.748 39.1002 143.748 40.1164C143.656 41.8716 145.134 43.3497 146.889 43.2573C147.813 43.165 148.644 42.8878 149.198 42.2411C149.752 41.6869 150.122 40.8554 150.214 39.9316C150.214 39.5621 150.122 39.285 149.937 38.9154C149.568 38.6383 149.383 38.2688 149.106 37.8993ZM146.612 42.4259C146.427 42.4259 146.242 42.3335 145.965 42.2411C145.781 42.1488 145.596 41.964 145.411 41.7792C145.226 41.5945 145.042 41.4097 144.949 41.1326C144.857 40.9478 144.764 40.6707 144.764 40.4859C144.672 39.4697 145.042 38.7307 145.781 38.3612V34.8507C145.781 34.5735 145.873 34.2964 146.058 34.1116C146.242 33.9269 146.52 33.8345 146.797 33.8345C147.443 33.8345 147.905 34.2964 147.813 34.8507V38.3612C148.182 38.6383 148.459 38.9154 148.644 39.285C148.829 39.6545 148.921 39.9316 148.829 40.2088C148.736 40.8554 148.459 41.3173 147.997 41.6869C147.536 42.0564 146.981 42.2411 146.335 42.2411L146.612 42.4259Z" fill="#50E6FF"/>
<path d="M146.519 40.0238C146.15 40.1162 145.965 40.3009 145.873 40.6705C145.873 40.7629 145.873 40.7629 145.873 40.8552C145.873 40.9476 145.965 41.04 146.057 41.04C146.15 41.1324 146.15 41.1324 146.242 41.2248C146.335 41.2248 146.427 41.2248 146.427 41.2248C146.612 41.2248 146.704 41.1324 146.796 41.04C146.889 40.9476 146.981 40.7629 146.981 40.6705C147.073 40.3009 146.889 40.1162 146.519 40.0238Z" fill="#50E6FF"/>
<path d="M232.886 29.0304C232.701 29.0304 232.517 29.0304 232.332 29.1228L231.593 25.8895H232.886V25.2428H229.561V25.8895H230.854L231.223 27.4599L226.328 27.5523L226.143 26.4437H227.251V25.7047H225.219L225.681 28.0142L224.757 29.3999C224.111 29.1228 223.464 28.938 222.91 28.938C221.801 29.0304 220.97 29.3999 220.324 30.0466C219.677 30.6933 219.307 31.6171 219.215 32.7256C219.123 33.0952 219.123 33.5571 219.307 34.019C219.492 34.4809 219.862 35.0352 220.231 35.4047C220.693 35.8666 221.155 36.1437 221.617 36.3285C222.079 36.5133 222.54 36.5133 222.91 36.4209C223.926 36.3285 224.757 36.0514 225.404 35.4971C226.051 34.9428 226.42 34.1114 226.605 33.0952H227.251L231.316 28.1066L231.593 29.2152C230.207 29.7695 229.284 31.0628 229.191 32.7256C229.099 33.0952 229.099 33.5571 229.284 34.019C229.468 34.4809 229.838 35.0352 230.207 35.4047C230.577 35.7742 231.131 36.1437 231.593 36.3285C232.055 36.5133 232.517 36.6056 232.886 36.4209C233.994 36.3285 234.826 35.959 235.472 35.3123C236.119 34.6656 236.488 33.7418 236.581 32.7256C236.673 30.6933 234.918 29.0304 232.886 29.0304ZM225.958 28.938L226.79 32.2637C226.605 31.3399 226.235 30.4161 225.404 29.9542L225.958 28.938ZM225.866 32.3561H223.649L224.942 30.6009C225.219 30.878 225.404 31.1552 225.589 31.5247C225.773 31.8018 225.866 32.079 225.866 32.3561ZM222.91 35.7742C221.247 35.7742 219.862 34.3885 219.954 32.7256C220.046 31.8942 220.324 31.1552 220.878 30.6009C221.432 30.0466 222.171 29.7695 223.002 29.6771C223.372 29.6771 223.926 29.7695 224.388 30.0466L222.356 33.0028H225.958C225.866 33.7418 225.496 34.3885 225.034 34.8504C224.48 35.4047 223.741 35.6818 222.91 35.7742ZM227.436 31.9866L226.512 28.199H230.392L227.436 31.9866ZM232.886 35.6818C232.609 35.7742 232.239 35.6818 231.87 35.4971C231.5 35.3123 231.131 35.1275 230.854 34.758C230.577 34.4809 230.3 34.019 230.115 33.6495C229.93 33.2799 229.93 32.9104 229.93 32.6333C229.93 31.2476 230.669 30.2314 231.778 29.8618L232.424 32.6333L233.163 32.5409L232.517 29.6771L232.701 29.4923C234.364 29.4923 235.657 30.878 235.657 32.4485C235.657 33.3723 235.38 34.1114 234.918 34.6656C234.456 35.3123 233.717 35.6818 232.886 35.6818Z" fill="#50E6FF"/>
<path d="M211.272 267.281L209.794 267.004C207.669 266.357 205.545 266.08 203.605 266.08C201.388 266.172 199.264 266.449 197.324 267.004C196.862 267.188 196.4 267.281 195.938 267.373C195.846 269.683 196.215 272.177 196.862 274.764C197.324 276.334 198.155 277.904 199.264 279.475C199.818 280.214 200.464 280.953 201.203 281.507C201.942 282.062 202.681 282.616 203.513 282.893C205.452 281.969 207.023 280.676 208.224 278.921C209.24 277.443 209.979 275.687 210.44 273.747C210.902 271.807 211.179 269.59 211.179 267.373L211.272 267.281ZM208.778 273.47C208.408 275.225 207.762 276.796 206.746 278.089C206.007 279.475 204.898 280.584 203.513 281.323C202.404 280.676 201.388 279.752 200.557 278.736C199.541 277.443 198.894 275.964 198.525 274.671C197.878 272.639 197.601 270.699 197.601 268.851L197.693 268.759C199.541 268.204 201.48 267.927 203.513 267.835C205.36 267.927 207.3 268.204 209.24 268.759C209.332 270.422 209.147 271.992 208.778 273.47Z" fill="#50E6FF"/>
<path d="M199.263 269.867C199.356 271.161 199.633 272.454 200.095 273.84C200.279 274.948 200.926 276.242 201.757 277.443C202.219 278.089 202.773 278.736 203.512 279.198C204.251 278.643 204.99 277.997 205.452 277.258C206.284 276.057 206.838 274.671 207.115 273.101C207.392 272.084 207.577 271.068 207.669 269.96C206.191 269.498 204.806 269.313 203.42 269.221C202.034 269.313 200.556 269.498 199.263 269.867Z" fill="#50E6FF"/>
<path d="M2.97551 134.714C7.40932 139.148 8.61014 139.241 8.61014 139.241C8.61014 139.241 16.0922 135.268 16.1846 129.633C16.1846 123.906 9.62622 124.645 8.51777 126.769C8.51777 126.769 7.96355 125.199 4.82293 125.199C1.68232 125.291 -1.45829 130.372 2.97551 134.714ZM4.82293 131.573H7.7788V128.617H9.25674V131.573H12.1202V133.051H9.25674V136.007H7.7788L7.68643 133.144H4.73056L4.82293 131.573Z" fill="#50E6FF"/>
<path d="M72.6225 33.1877L72.1606 33.0953C72.1606 32.4486 72.4377 30.601 72.0682 30.2315C71.6988 29.7696 70.7751 29.3077 69.4819 29.4C68.5582 29.5848 67.3573 29.2153 66.2489 28.5686C65.9718 28.3839 65.6947 28.1067 65.5099 27.8296V26.9058C65.5099 26.721 65.5099 26.5362 65.5099 26.3515C66.2489 25.6124 69.6666 27.6448 69.2971 25.4277C68.9276 23.1181 66.526 26.1667 65.5099 25.0581C64.4938 23.9496 64.032 24.781 63.6625 25.2429C63.2006 25.7048 60.06 23.7648 60.3371 25.6124C60.6143 27.46 63.2006 24.9658 64.032 26.6286C64.032 26.8134 64.032 26.9058 64.1243 27.0905L63.9396 27.2753V28.1067L62.9235 28.7534L62.6464 29.0305H60.8914C60.5219 29.0305 60.2448 29.1229 59.9677 29.2153C58.8592 29.5848 58.2126 30.5086 58.1202 31.8019V37.5295H60.6143L60.799 33.28C60.799 32.8181 60.9837 32.4486 61.2609 32.1715C61.538 31.8943 61.9074 31.8019 62.3693 31.7096C63.293 31.9867 64.1244 32.1715 64.8633 32.1715C66.0641 31.9867 69.5742 30.2315 70.0361 31.7096V33.4648L69.759 33.7419C68.7429 34.0191 69.759 36.1438 69.759 36.1438H72.6225C72.6225 35.9591 73.5462 33.4648 72.6225 33.1877Z" fill="#50E6FF"/>
<path d="M146.613 278.274C144.951 278.366 143.565 278.921 142.641 279.937C141.625 280.953 141.071 282.339 140.979 284.002C140.886 284.556 140.979 285.203 141.348 285.942C141.625 286.496 141.902 286.958 142.272 287.42C142.641 287.882 143.103 288.344 143.658 288.713C144.119 289.083 144.674 289.36 145.135 289.452C145.597 289.544 146.152 289.637 146.521 289.637C148.184 289.544 149.569 288.99 150.493 287.974C151.509 286.958 152.063 285.572 152.156 283.909C152.248 283.355 152.156 282.708 151.786 281.969C151.509 281.323 151.047 280.584 150.401 280.029C149.846 279.475 149.107 278.921 148.461 278.644C147.907 278.366 147.168 278.182 146.613 278.274ZM149.292 287.697L146.613 286.311L144.027 287.697L144.581 284.648L142.549 282.616L145.413 282.154L146.706 279.567L148.091 282.246L150.955 282.708L148.83 284.833L149.292 287.697Z" fill="#50E6FF"/>
<path d="M233.903 201.875H237.413C237.506 201.875 237.598 201.783 237.69 201.783C237.783 201.69 237.783 201.598 237.783 201.506L238.337 200.212L239.261 205.755C239.076 205.94 239.445 206.217 239.722 206.217C239.907 206.125 240 205.94 240.092 205.847L241.293 197.164L243.233 210.836C243.14 210.928 243.602 211.206 243.694 211.298C243.787 211.298 243.879 211.298 243.972 211.206C244.064 211.113 244.064 211.021 244.064 210.928L245.357 201.69L245.819 204.831L246.373 205.386C246.466 205.478 246.65 205.108 246.743 205.016L247.851 201.967H250.992C251.176 201.967 251.269 201.875 251.361 201.783C251.454 201.69 251.454 201.598 251.454 201.413C251.454 201.044 251.269 200.951 250.992 200.951H247.482C247.389 200.951 247.297 200.951 247.205 201.044C247.112 201.136 247.112 201.228 247.112 201.321L246.558 202.891L245.819 198.734C246.004 198.549 245.542 198.457 245.449 198.365C245.265 198.365 245.172 198.365 245.08 198.457C244.988 198.549 244.988 198.734 244.988 198.827L243.879 207.418L241.847 193.468L241.385 193.007C241.2 193.007 241.108 193.099 241.016 193.099C240.923 193.191 240.923 193.284 240.923 193.468L239.63 202.337L238.984 198.272C238.984 198.272 238.891 197.903 238.706 197.995C238.522 197.995 238.429 197.995 238.337 198.087C238.245 198.18 238.245 198.272 238.245 198.457L237.228 201.136H233.995C233.811 201.136 233.718 201.228 233.626 201.228C233.534 201.321 233.534 201.413 233.534 201.598C233.441 201.69 233.903 201.967 233.995 202.06L233.903 201.875Z" fill="#50E6FF"/>
<path d="M121.673 252.685C121.303 252.685 120.934 252.869 120.749 253.054C120.564 253.239 120.379 253.608 120.379 253.978C120.379 254.809 121.026 255.271 121.673 255.271C122.042 255.271 122.412 255.086 122.596 254.902C122.781 254.717 122.966 254.347 122.966 253.978C122.966 253.885 122.966 253.701 122.873 253.516C122.781 253.331 122.689 253.239 122.596 253.054C122.504 252.869 122.319 252.777 122.134 252.685C121.95 252.777 121.857 252.685 121.673 252.685Z" fill="#50E6FF"/>
<path d="M125.274 256.195C125.459 255.825 125.644 255.456 125.736 254.994C126.291 254.902 126.845 254.809 127.307 254.625V253.424C126.845 253.331 126.383 253.146 125.921 253.146C125.829 252.777 125.644 252.407 125.459 252.13L126.383 250.745L125.459 249.821L124.074 250.745C123.704 250.467 123.335 250.375 122.965 250.283C122.873 249.821 122.78 249.266 122.596 248.805H121.302C121.118 249.451 120.933 250.005 120.933 250.283C120.471 250.375 120.194 250.467 119.825 250.745C119.547 250.467 118.993 250.19 118.439 249.913L117.515 250.837C117.7 251.299 117.977 251.761 118.347 252.223C118.162 252.5 117.977 252.869 117.885 253.331C117.423 253.516 116.869 253.608 116.314 253.793V255.179C116.869 255.271 117.515 255.456 117.885 255.548C117.977 255.918 118.162 256.287 118.347 256.657C118.07 257.119 117.792 257.581 117.515 258.043L118.347 258.874L119.825 257.95C120.009 258.135 120.471 258.32 120.841 258.412C120.933 258.966 121.025 259.521 121.21 260.075H122.503C122.688 259.613 122.78 258.966 122.873 258.412C123.335 258.32 123.704 258.227 123.981 257.95C124.443 258.227 124.905 258.597 125.367 258.782L126.291 257.858C125.921 257.119 125.552 256.657 125.274 256.195ZM121.672 256.287C120.379 256.287 119.363 255.364 119.363 253.978C119.455 253.331 119.64 252.777 120.102 252.407C120.471 252.038 121.025 251.761 121.672 251.668C121.857 251.576 122.226 251.668 122.503 251.761C122.78 251.853 123.15 252.13 123.335 252.315C123.612 252.592 123.797 252.869 123.889 253.146C123.981 253.424 124.074 253.701 123.981 253.978C123.889 254.625 123.704 255.179 123.335 255.548C122.873 256.103 122.319 256.287 121.672 256.287Z" fill="#50E6FF"/>
<path d="M131.094 260.167C131.279 259.983 131.371 259.705 131.371 259.428C131.648 259.428 132.018 259.336 132.202 259.244V258.504C131.925 258.412 131.648 258.412 131.371 258.32C131.371 258.135 131.279 257.95 131.094 257.765L131.648 256.934L131.094 256.38L130.262 256.842C130.078 256.749 129.801 256.657 129.616 256.564C129.616 256.287 129.524 256.01 129.431 255.733H128.692C128.6 256.103 128.507 256.38 128.507 256.564C128.23 256.564 128.046 256.657 127.861 256.842C127.676 256.657 127.399 256.564 127.122 256.38L126.66 256.842C126.752 257.119 126.937 257.396 127.122 257.581C127.03 257.765 126.937 257.95 126.845 258.227C126.752 258.32 126.291 258.32 126.013 258.504V259.244C126.383 259.336 126.66 259.428 126.937 259.428C126.937 259.613 127.029 259.798 127.214 260.075C127.029 260.352 126.845 260.537 126.752 260.814L127.214 261.276L128.046 260.814C128.138 260.906 128.415 260.999 128.6 261.091C128.6 261.368 128.692 261.738 128.785 262.015H129.524C129.616 261.738 129.708 261.368 129.708 261.091C129.985 261.091 130.17 260.999 130.355 260.814C130.632 260.999 130.909 261.184 131.094 261.276L131.556 260.814C131.556 260.629 131.371 260.352 131.094 260.167ZM129.154 260.167C128.415 260.167 127.861 259.613 127.861 258.874C127.861 258.504 128.046 258.227 128.23 258.043C128.415 257.858 128.785 257.673 129.062 257.673C129.154 257.673 129.339 257.673 129.524 257.765C129.708 257.858 129.893 257.95 129.985 258.135C130.17 258.32 130.262 258.504 130.355 258.597C130.447 258.782 130.447 258.966 130.447 259.059C130.447 259.428 130.262 259.705 130.078 259.983C129.893 260.075 129.524 260.26 129.154 260.167Z" fill="#50E6FF"/>
<path d="M56.7349 76.5142C57.012 73.9275 57.9357 71.8028 59.4136 70.2323C60.9839 68.6618 63.1085 67.738 65.6025 67.4609V67.0913C65.6025 66.999 65.6949 66.8142 65.7872 66.7218C65.8796 66.6294 65.972 66.5371 66.1567 66.5371C66.3414 66.3523 66.5262 66.9066 66.7109 67.0913L66.5262 67.2761C67.1728 67.1837 67.9118 67.2761 68.7431 67.4609C69.5744 67.738 70.3134 68.1075 71.1447 68.6618C71.9761 69.2161 72.715 69.8628 73.2693 70.6942C73.9159 71.4332 74.3777 72.2647 74.7472 73.0961C75.2091 74.2047 75.3938 75.2209 75.3014 76.0523C75.3938 76.3294 75.3938 76.6066 75.3938 76.7913H74.4701L74.6548 76.6066C74.4701 75.8675 73.7311 75.4056 72.9922 75.4056C72.5303 75.498 72.0684 75.6828 71.7913 75.9599C71.5142 76.237 71.3295 76.699 71.2371 77.1609L70.3134 77.2532C70.3134 76.237 69.5744 75.498 68.5584 75.498C68.0965 75.5904 67.727 75.7751 67.4499 76.0523C67.1728 76.3294 66.988 76.699 66.8957 77.1609L66.8033 81.8723C66.8033 82.3342 67.1728 82.7961 67.6346 82.7037C67.9118 82.7037 68.0965 82.6113 68.2812 82.4266C68.466 82.2418 68.5584 82.057 68.5584 81.7799C68.5584 81.6875 68.6507 81.5028 68.7431 81.4104C68.8355 81.318 68.9278 81.2256 69.1126 81.2256C69.2973 81.0409 69.6668 81.5028 69.6668 81.7799C69.6668 82.3342 69.4821 82.7961 69.1126 83.1656C68.7431 83.5351 68.2812 83.7199 67.727 83.7199C66.7109 83.7199 65.8796 82.8885 65.7872 81.7799L65.8796 76.9761C65.6948 76.2371 65.0482 75.6828 64.2169 75.6828C63.7551 75.6828 63.2932 75.8675 63.0161 76.237C62.6466 76.699 62.4619 77.1609 62.4619 77.6228H61.5382C61.5382 76.699 60.7992 75.8675 59.7831 75.8675C58.8594 76.0523 58.3052 76.6066 58.1204 77.5304L58.0281 77.6228L57.1043 77.7151L56.7349 76.5142Z" fill="#50E6FF"/>
<g filter="url(#filter0_d)">
<path fill-rule="evenodd" clip-rule="evenodd" d="M167.749 108.954C159.765 99.0908 147.56 92.7844 133.883 92.7844C109.833 92.7844 90.3345 112.283 90.3345 136.333C90.3345 140.094 90.8115 143.744 91.7082 147.226C82.8937 147.459 75.8182 154.68 75.8182 163.55C75.8182 172.569 83.1307 179.881 92.1488 179.881H204.649C213.667 179.881 220.979 172.569 220.979 163.55C220.979 154.532 213.667 147.22 204.649 147.22H204.352C205.713 143.858 206.463 140.183 206.463 136.333C206.463 120.3 193.464 107.3 177.431 107.3C174.036 107.3 170.777 107.883 167.749 108.954Z" fill="url(#paint0_linear)"/>
</g>
<path d="M72.6221 25.9819C73.0839 26.5362 73.5458 27.0905 73.9153 27.6447C84.0761 21.2705 95.4377 16.2819 107.631 12.5867C107.446 11.94 107.354 11.2933 107.261 10.6467C94.7911 14.3419 83.1524 19.4229 72.6221 25.9819ZM55.7182 38.1762C52.7623 40.6704 49.8988 43.2571 47.1277 46.0285C40.9388 52.1257 35.2118 58.8695 30.2238 66.0752C30.8704 66.2599 31.6094 66.6295 32.256 66.999C37.1516 59.978 42.6939 53.5114 48.698 47.599C51.3768 44.92 54.0555 42.4257 56.919 40.0238C56.4572 39.3771 55.9953 38.8228 55.7182 38.1762ZM21.4486 85.0132C20.8943 84.6437 20.2477 84.1818 19.7859 83.7199C14.0589 94.9904 9.9022 107.462 7.22344 120.949C7.87004 120.857 8.51663 120.857 9.16323 120.857C11.842 107.924 15.9063 95.9142 21.4486 85.0132ZM6.76159 141.735C6.20736 141.643 5.56076 141.458 5.00654 141.273C4.91417 142.751 4.91417 144.229 4.91417 145.707C4.72942 156.516 6.11499 168.064 8.88612 180.165C9.34797 179.888 9.80983 179.611 10.2717 179.334C7.77767 167.971 6.57684 156.978 6.76159 146.724C6.66921 145.061 6.76159 143.398 6.76159 141.735ZM16.3682 199.196C15.9063 199.288 15.3521 199.288 14.8902 199.381C19.324 210.836 25.9747 222.476 34.3805 233.469C34.5652 233.1 34.8424 232.73 35.1195 232.361C26.9908 221.552 20.6172 210.282 16.3682 199.196ZM48.7904 247.696C48.4209 247.881 48.0514 248.158 47.5896 248.343C57.4732 257.858 68.4654 265.895 79.6423 271.807C79.6423 271.345 79.7346 270.883 79.827 270.329C69.0196 264.694 58.397 256.934 48.7904 247.696ZM98.5783 278.643C98.3012 279.013 97.9317 279.382 97.5623 279.752L97.4699 279.844C110.217 284.556 123.426 287.327 136.82 288.159C136.543 287.604 136.358 286.958 136.266 286.403C124.35 285.757 111.695 283.17 98.5783 278.643ZM156.864 286.219C156.68 286.865 156.495 287.512 156.218 288.159C170.535 287.05 183.837 284.186 195.937 279.567C195.845 279.475 195.66 279.29 195.568 279.198C195.198 278.828 194.829 278.366 194.459 277.904C183.005 282.246 170.351 285.018 156.864 286.219ZM213.303 269.221C213.488 269.96 213.58 270.791 213.58 271.438C225.404 265.063 236.026 257.211 245.356 248.065C244.709 247.696 244.155 247.234 243.601 246.772C234.641 255.548 224.48 263.031 213.303 269.221ZM253.115 236.703L254.131 238.827L254.593 238.365L253.392 236.425L253.115 236.703ZM257.641 230.975C257.918 231.16 258.103 231.437 258.38 231.622C258.657 231.899 258.934 232.176 259.211 232.545C267.155 222.291 273.621 210.744 278.609 197.995C277.963 197.995 277.224 197.903 276.485 197.81C271.589 210.004 265.308 221.09 257.641 230.975ZM282.766 177.856C283.32 178.133 283.967 178.41 284.521 178.872C286.83 169.172 288.124 158.733 288.216 147.74C288.216 145.153 288.216 142.566 288.031 140.072C287.477 140.257 286.923 140.442 286.369 140.534C286.461 142.659 286.461 144.784 286.461 146.908C286.369 157.809 285.075 168.156 282.766 177.856ZM284.059 119.564C284.613 119.564 285.168 119.564 285.722 119.656C283.597 108.016 279.533 95.8218 273.529 83.4428C273.159 83.8123 272.79 83.997 272.421 84.2742C278.148 96.2837 282.119 108.293 284.059 119.564ZM261.705 66.1675C262.075 65.9828 262.444 65.798 262.906 65.6133C258.38 59.1466 253.207 52.8647 247.48 47.1371C244.247 43.9038 240.83 40.7628 237.412 37.8066C237.227 38.1762 236.95 38.5457 236.765 38.9152C246.187 46.7676 254.778 56.098 261.705 66.1675ZM219.584 26.6286C219.861 26.259 220.139 25.8895 220.416 25.6124C208.869 18.6838 197.231 13.6029 186.054 10.5543C185.961 11.1086 185.869 11.5705 185.777 12.0324C196.769 14.9886 208.223 19.9771 219.584 26.6286ZM180.05 18.961C179.588 19.1457 179.218 19.3305 178.756 19.5152L187.162 37.16C187.532 36.8828 187.901 36.6057 188.363 36.4209L180.05 18.961ZM202.496 40.4857L218.106 35.7743C218.291 36.4209 218.568 36.9752 218.845 37.6219L203.235 42.3333C203.142 41.779 202.865 41.1323 202.496 40.4857ZM183.098 42.7952C174.23 39.7466 165.547 37.8066 157.419 37.0676C157.419 37.6219 157.326 38.1762 157.234 38.7304C165.363 39.3771 173.953 41.2247 182.913 44.1809C182.913 43.719 183.005 43.2571 183.098 42.7952ZM201.11 52.5876C201.387 52.218 201.664 51.8485 201.941 51.479C208.777 55.4514 215.428 60.4399 221.616 66.1675C221.339 66.4447 221.062 66.8142 220.785 67.1837C214.689 61.4561 208.038 56.4676 201.11 52.5876ZM234.456 82.519C239.629 89.6323 243.785 97.1151 246.741 104.506C247.111 104.228 247.573 104.044 248.035 103.767C244.986 96.3761 240.737 88.9856 235.564 81.8723C235.195 82.057 234.826 82.2418 234.456 82.519ZM239.998 73.9275L256.256 75.9599C256.256 75.4056 256.256 74.8513 256.256 74.2971L239.998 72.1723C240.091 72.7266 240.091 73.3733 239.998 73.9275ZM229.099 62.7495L228.637 43.1647C228.082 43.1647 227.528 43.1647 226.882 43.1647L227.343 63.0266C227.898 62.8418 228.544 62.7495 229.099 62.7495ZM261.151 84.2742C261.798 84.6437 262.352 84.9209 262.999 85.198L255.517 103.212C254.778 103.027 254.131 102.843 253.484 102.843L261.151 84.2742ZM262.26 117.069L275.376 125.014C275.192 125.384 275.007 125.846 274.822 126.215L261.798 118.27C261.983 117.901 262.167 117.531 262.26 117.069ZM254.223 123.628C253.762 123.721 253.207 123.721 252.653 123.813C254.223 131.758 254.962 139.426 254.87 146.724C254.87 147.555 254.87 148.294 254.87 149.033C255.424 148.941 255.978 148.848 256.625 148.756V147.555C256.81 139.98 255.978 131.943 254.223 123.628ZM261.428 149.587C262.075 149.865 262.722 150.234 263.368 150.696L277.131 137.67L277.039 137.486C276.577 137.024 276.115 136.469 275.746 135.915L261.428 149.587ZM264.015 167.325L272.143 179.149C271.866 179.426 271.497 179.704 271.127 179.981L262.906 168.064C263.368 167.879 263.738 167.602 264.015 167.325ZM254.316 169.449C253.669 169.265 253.115 169.08 252.468 168.71C250.529 177.394 247.757 185.431 244.155 192.914C244.802 193.006 245.541 193.191 246.28 193.376C249.79 185.985 252.468 177.948 254.316 169.449ZM250.251 195.778L250.436 195.963C250.898 196.425 251.36 196.979 251.637 197.441L268.726 191.344C268.449 190.697 268.264 190.05 268.171 189.404L250.251 195.778ZM244.894 213.7L247.757 229.035C247.203 229.22 246.741 229.404 246.28 229.682L243.416 213.884C243.878 213.884 244.432 213.792 244.894 213.7ZM235.749 211.205C235.564 211.113 235.472 210.928 235.38 210.836C235.01 210.466 234.641 210.004 234.364 209.635C230.854 214.531 226.882 219.15 222.448 223.584C220.693 225.34 218.845 227.095 216.906 228.665C217.552 229.035 218.199 229.404 218.753 229.959C220.508 228.388 222.263 226.818 223.926 225.155C228.36 220.628 232.331 216.009 235.749 211.205ZM221.616 233.931C221.894 234.485 222.078 235.132 222.171 235.686L240.553 237.164C240.645 236.61 240.83 236.056 241.014 235.502L221.616 233.931ZM208.592 247.881L205.359 261.461C204.713 261.276 203.974 261.276 203.419 261.183L206.837 247.049C207.299 247.419 207.946 247.696 208.592 247.881ZM202.034 241.876C201.757 241.137 201.572 240.398 201.387 239.751C194.367 244.001 186.608 247.419 178.387 250.098C178.849 250.652 179.311 251.206 179.68 251.761C187.716 249.174 195.198 245.848 202.034 241.876ZM181.066 258.32C180.973 258.782 180.881 259.243 180.788 259.705L193.72 266.726C193.905 266.357 194.182 265.987 194.459 265.618L181.066 258.32ZM162.13 263.585L152.892 275.595C152.246 275.133 151.692 274.763 151.045 274.486L160.929 261.553C161.206 262.292 161.668 262.939 162.13 263.585ZM160.097 256.01C160.19 255.363 160.375 254.717 160.559 254.07C155.664 254.717 150.491 255.086 145.226 255.086C141.254 255.086 137.374 254.809 133.495 254.44C133.587 254.994 133.679 255.641 133.772 256.195C138.021 256.657 142.085 256.934 146.149 256.934C150.86 256.842 155.571 256.564 160.097 256.01ZM131.924 262.754C131.647 263.123 131.37 263.493 131.093 263.77L140.145 275.595C140.422 275.318 140.884 275.133 141.161 274.856L131.924 262.754ZM113.081 259.613L99.502 267.003C99.1326 266.357 98.7631 265.803 98.3012 265.248L112.803 257.303C112.711 258.135 112.803 258.874 113.081 259.613ZM114.004 251.945C114.281 251.484 114.559 251.022 114.836 250.652C107.169 248.435 99.2249 245.017 91.3734 240.49C91.281 240.952 91.1886 241.414 91.0039 241.784C98.6707 246.31 106.43 249.728 114.004 251.945ZM85.8311 247.603C85.3693 247.881 84.9074 248.065 84.3532 248.25L87.5862 262.107C88.048 262.015 88.6023 261.923 89.1565 261.83L85.8311 247.603ZM70.6823 236.148L54.0555 237.534C53.9632 236.98 53.8708 236.333 53.686 235.686L71.3289 234.208C71.0518 234.855 70.867 235.409 70.6823 236.148ZM74.4695 230.051C74.839 229.774 75.2085 229.497 75.578 229.312C69.112 223.769 63.2003 217.395 58.397 210.559C58.1198 210.836 57.8427 211.205 57.5656 211.483C62.3689 218.134 68.0959 224.416 74.4695 230.051ZM49.7141 214.439C49.0675 214.439 48.4209 214.346 47.7743 214.254L45.1879 228.204C45.7421 228.296 46.3887 228.481 47.0353 228.665L49.7141 214.439ZM41.5854 197.81L24.8663 191.99C25.051 191.528 25.1434 191.066 25.2358 190.512L42.6015 196.609C42.232 196.886 41.8626 197.348 41.5854 197.81ZM47.0353 193.838C47.4972 193.653 47.959 193.561 48.4209 193.468C44.6337 185.246 41.9549 177.117 40.477 169.265C40.0151 169.449 39.4609 169.726 38.9991 169.819C40.5694 177.671 43.2481 185.708 47.0353 193.838ZM30.5009 168.987C29.8543 168.618 29.3001 168.156 28.7459 167.694L20.3401 179.796C20.8943 180.165 21.5409 180.627 22.0028 181.089L30.5009 168.987ZM30.2238 151.066L16.7376 138.317C17.0148 138.04 17.2919 137.67 17.4766 137.301L31.4246 150.419C30.9628 150.604 30.5009 150.788 30.2238 151.066ZM36.5974 149.403C37.1516 149.403 37.7059 149.495 38.3525 149.68C38.3525 148.756 38.3525 147.74 38.3525 146.816C38.4448 138.964 39.2762 131.388 40.8465 124.367C40.1999 124.367 39.5533 124.275 38.9067 124.183C37.4287 131.019 36.6898 138.225 36.5974 145.892C36.505 147.093 36.505 148.294 36.5974 149.403ZM31.7941 119.287C31.4246 118.64 31.0552 117.993 30.8704 117.347L17.4766 125.568C17.9385 126.215 18.2156 126.862 18.4927 127.416L31.7941 119.287ZM38.2601 103.674L30.8704 85.8447C31.3323 85.6599 31.7017 85.4751 32.1636 85.198L39.738 103.397C39.1838 103.489 38.7219 103.489 38.2601 103.674ZM45.0955 104.228C45.7421 104.506 46.2964 104.875 46.943 105.245C50.3607 97.2999 54.5174 89.9094 59.5054 83.1656C58.8588 82.8885 58.3046 82.519 57.658 82.0571C52.67 88.8009 48.5133 96.1913 45.0955 104.228ZM53.5937 74.4818C53.5937 73.8352 53.5937 73.1885 53.5937 72.5418L37.4288 74.6666C37.5211 75.3133 37.5211 75.9599 37.5211 76.6066L53.5937 74.4818ZM64.5858 63.2114C65.14 63.2114 65.7866 63.3037 66.3409 63.3961L66.8951 43.719C66.3409 43.8114 65.6943 43.9038 65.14 43.9038L64.5858 63.2114ZM74.7466 37.8066L91.6505 42.7952C91.8353 42.3333 92.02 41.8714 92.2971 41.4095L75.2085 36.3285C75.1161 36.7904 74.9314 37.2524 74.7466 37.8066ZM105.137 36.5133C105.783 36.6981 106.43 37.0676 106.984 37.4371L115.297 19.9771C114.651 19.7924 114.004 19.6076 113.265 19.3305L105.137 36.5133ZM124.996 17.5752L139.129 29.6771L139.499 29.3076L139.961 28.8457L125.828 16.6514L125.274 17.2981L124.996 17.5752ZM128.322 8.1524C134.695 7.22859 141.346 6.76668 148.274 6.76668C153.724 6.76668 159.358 7.13621 165.085 7.78287C165.178 7.22859 165.27 6.6743 165.455 6.12002C159.266 5.28859 153.17 4.91907 147.35 4.91907C140.607 4.91907 134.049 5.38097 127.86 6.2124C128.137 6.95145 128.229 7.50573 128.322 8.1524ZM167.579 16.3743L153.447 28.3838C153.724 28.6609 154.093 28.9381 154.37 29.2152C154.555 29.4 154.74 29.6771 155.017 29.8619L169.15 17.76C168.78 17.4829 168.411 17.1133 168.041 16.7438C167.857 16.7438 167.764 16.5591 167.579 16.3743ZM136.358 37.0676C127.49 37.9914 119.085 39.7466 111.326 42.4257C111.603 43.0723 111.787 43.719 111.88 44.3657C119.547 41.6866 127.768 39.839 136.543 38.9152C136.45 38.3609 136.358 37.7143 136.358 37.0676ZM93.2208 52.8647C92.759 52.3104 92.3895 51.6638 92.1124 51.0171C84.6303 55.359 77.7025 60.4399 71.606 66.1675C72.1602 66.7218 72.5297 67.2761 72.9916 67.8304C79.088 62.1952 85.8311 57.2066 93.2208 52.8647Z" fill="#0078D4"/>
<defs>
<filter id="filter0_d" x="34.1819" y="55.3117" width="228.434" height="170.369" filterUnits="userSpaceOnUse" color-interpolation-filters="sRGB">
<feFlood flood-opacity="0" result="BackgroundImageFix"/>
<feColorMatrix in="SourceAlpha" type="matrix" values="0 0 0 0 0 0 0 0 0 0 0 0 0 0 0 0 0 0 127 0"/>
<feOffset dy="4.16364"/>
<feGaussianBlur stdDeviation="20.8182"/>
<feColorMatrix type="matrix" values="0 0 0 0 0.188235 0 0 0 0 0.898039 0 0 0 0 1 0 0 0 0.45 0"/>
<feBlend mode="normal" in2="BackgroundImageFix" result="effect1_dropShadow"/>
<feBlend mode="normal" in="SourceGraphic" in2="effect1_dropShadow" result="shape"/>
</filter>
<linearGradient id="paint0_linear" x1="211.973" y1="40.9496" x2="216.826" y2="189.348" gradientUnits="userSpaceOnUse">
<stop offset="0.473958" stop-color="#50E6FF"/>
<stop offset="1" stop-color="#0078D4"/>
</linearGradient>
</defs>
</svg>
